<svg width="22" height="23" viewBox="0 0 22 23" fill="none" xmlns="http://www.w3.org/2000/svg">
<path d="M9.5 4.94118C9.5 4.94118 6.79216 4 5 4C3.76536 4 2.09613 4.44668 1.17707 4.7246C0.769552 4.84783 0.5 5.22655 0.5 5.65228V18.5937C0.5 19.2817 1.18086 19.7723 1.84465 19.5916C2.77831 19.3375 4.02474 19.0588 5 19.0588C6.79216 19.0588 9.5 20 9.5 20M9.5 4.94118C9.5 4.94118 12.2078 4 14 4C15.2346 4 16.9039 4.44668 17.8229 4.7246C18.2304 4.84783 18.5 5.22654 18.5 5.65228V18.5937C18.5 19.2817 17.8191 19.7723 17.1553 19.5916C16.2217 19.3375 14.9753 19.0588 14 19.0588C12.2078 19.0588 9.5 20 9.5 20M9.5 4.94118V20" stroke="currentColor"/>
<path d="M2 7.42356C2 7.17914 2.17671 6.97055 2.4178 6.93037L3.5 6.75L4.4178 6.59703C4.72257 6.54624 5 6.78126 5 7.09023V8.57644C5 8.82086 4.82329 9.02945 4.5822 9.06963L2.5822 9.40297C2.27743 9.45376 2 9.21874 2 8.90977V7.42356Z" fill="currentColor"/>
</svg>
