<svg width="22" height="22" viewBox="0 0 22 22" fill="none" xmlns="http://www.w3.org/2000/svg">
<path fill-rule="evenodd" clip-rule="evenodd" d="M14.7774 1.08403C14.5476 0.930852 14.2372 0.992939 14.084 1.2227C13.9308 1.45247 13.9929 1.7629 14.2226 1.91608L17.2227 3.91608C17.4524 4.06925 17.7628 4.00717 17.916 3.7774C18.0692 3.54764 18.0071 3.2372 17.7773 3.08403L14.7774 1.08403ZM4.91603 1.22271C5.0692 1.45247 5.00711 1.76291 4.77735 1.91609L1.77735 3.91609C1.54759 4.06926 1.23715 4.00717 1.08397 3.77741C0.930799 3.54765 0.992886 3.23721 1.22265 3.08404L4.22265 1.08404C4.45241 0.930859 4.76285 0.992946 4.91603 1.22271ZM18 11.5001C18 16.1945 14.1944 20.0001 9.5 20.0001C4.80558 20.0001 1 16.1945 1 11.5001C1 6.80565 4.80558 3.00007 9.5 3.00007C14.1944 3.00007 18 6.80565 18 11.5001ZM19 11.5001C19 16.7468 14.7467 21.0001 9.5 21.0001C4.25329 21.0001 0 16.7468 0 11.5001C0 6.25336 4.25329 2.00007 9.5 2.00007C14.7467 2.00007 19 6.25336 19 11.5001ZM10 5.9118C10 5.63566 9.77614 5.4118 9.5 5.4118C9.22386 5.4118 9 5.63566 9 5.9118V11.5C9 11.6326 9.05268 11.7598 9.14645 11.8536C9.24021 11.9474 9.36739 12 9.5 12H12.8529C13.1291 12 13.3529 11.7762 13.3529 11.5C13.3529 11.2239 13.1291 11 12.8529 11H10V5.9118Z" fill="currentColor"/>
</svg>
